<?xml version="1.0" encoding="UTF-8"?>
<svg width="44px" height="42px" viewBox="0 0 44 42" version="1.1" xmlns="http://www.w3.org/2000/svg" xmlns:xlink="http://www.w3.org/1999/xlink">
    <!-- Generator: sketchtool 50 (54983) - http://www.bohemiancoding.com/sketch -->
    <title>85BF9FEA-05B0-48CC-86BC-EDEF8F195353</title>
    <desc>Created with sketchtool.</desc>
    <defs>
        <path d="M166.993329,126 C165.892444,126 165,126.893127 165,128.000157 L165,471.999843 C165,473.104499 165.893617,474 166.993329,474 L633.006671,474 C634.107556,474 635,473.106873 635,471.999843 L635,128.000157 C635,126.895501 634.106383,126 633.006671,126 L166.993329,126 Z" id="path-1"></path>
        <filter x="-3.2%" y="-4.3%" width="106.4%" height="108.6%" filterUnits="objectBoundingBox" id="filter-2">
            <feOffset dx="0" dy="0" in="SourceAlpha" result="shadowOffsetOuter1"></feOffset>
            <feGaussianBlur stdDeviation="5" in="shadowOffsetOuter1" result="shadowBlurOuter1"></feGaussianBlur>
            <feColorMatrix values="0 0 0 0 0.247058824   0 0 0 0 0.305882353   0 0 0 0 0.352941176  0 0 0 0.108667346 0" type="matrix" in="shadowBlurOuter1"></feColorMatrix>
        </filter>
    </defs>
    <g id="Page-1" stroke="none" stroke-width="1" fill="none" fill-rule="evenodd">
        <g id="Browser-Not-Supported" transform="translate(-224.000000, -276.000000)">
            <g id="Lightbox-Background">
                <use fill="black" fill-opacity="1" filter="url(#filter-2)" xlink:href="#path-1"></use>
                <use fill="#FFFFFF" fill-rule="evenodd" xlink:href="#path-1"></use>
            </g>
            <g id="Browser-Icons---Grayscale" transform="translate(224.000000, 276.000000)" fill="#EFEFEF">
                <g id="ie">
                    <g id="img">
                        <path d="M5.11697534,27.1492472 L11.7568161,14.9677101 C11.7568161,14.9677101 7.71168308,18.333205 4.56843703,21.9710751 C4.85593363,11.5293007 13.3825432,3.15323484 23.8589611,3.15323484 C34.5169605,3.15323484 43.1569761,11.8221716 43.1569761,22.515847 C43.1569761,23.2931484 43.1113263,24.059752 43.0225698,24.8131061 L31.3819161,24.8131061 L15.6818361,24.8131061 C15.6818361,29.8880707 19.1964188,34.0021423 23.5318761,34.0021423 C26.4374992,34.0021423 28.9744117,32.1542334 30.3317206,29.4076242 L41.8987624,29.4076242 C39.1303599,36.6985655 32.0975569,41.8784592 23.8589611,41.8784592 C14.7926333,41.8784592 7.1865618,35.6054301 5.1169747,27.1492446 Z M31.0568363,18.9058685 C30.0917869,15.1101546 27.0879674,12.3422711 23.5318761,12.3422711 C19.9757849,12.3422711 16.9719654,15.1101546 16.006916,18.9058685 L31.0568363,18.9058685 Z" id="Oval-1"></path>
                        <path d="M38.8020357,14.7722471 C40.9995255,10.0791453 41.8684666,6.0665899 40.1289164,4.32490814 C35.9364359,0.127290706 25.6245114,6.1047878 16.0060621,15.7232371 C6.38761271,25.3416865 0.19494983,35.3835649 4.22251986,39.411133 C5.67118538,40.8597979 8.96313626,40.7031604 12.7584664,39.4352558 C8.05717268,41.4756192 4.15951202,41.7329737 2.15217797,39.7256396 C-1.92368512,35.6497765 3.33747313,23.7803385 13.9033038,13.2145078 C24.4691345,2.64867713 36.3385725,-2.61248113 40.4144356,1.46338196 C42.7955167,3.84446308 41.9900712,8.88532544 38.8020357,14.7722471 Z" id="Path-2"></path>
                    </g>
                </g>
            </g>
            <g id="Browser-Icons---Color" transform="translate(224.000000, 276.000000)" fill="#68D1FF">
                <g id="ie">
                    <g id="img">
                        <path d="M4.98079132,27.2204825 L11.6232464,15.0596799 C11.6232464,15.0596799 7.57652067,18.4194463 4.43203704,22.0511244 C4.71964683,11.6271231 13.2496136,3.26531444 23.7301564,3.26531444 C34.3923521,3.26531444 43.0357695,11.9194955 43.0357695,22.594969 C43.0357695,23.3709473 42.9901017,24.136246 42.9013103,24.8883178 L31.2560734,24.8883178 L15.5498118,24.8883178 C15.5498118,29.9546442 19.0657782,34.0617132 23.4029426,34.0617132 C26.3097097,34.0617132 28.847621,32.2169496 30.2054643,29.4750155 L41.7770604,29.4750155 C39.0075679,36.7535467 31.9719959,41.9246235 23.7301564,41.9246235 C14.6602588,41.9246235 7.05119264,35.662272 4.98079068,27.2204799 Z M30.9308655,18.9911351 C29.9654362,15.201882 26.960434,12.4387098 23.4029426,12.4387098 C19.8454512,12.4387098 16.840449,15.201882 15.8750197,18.9911351 L30.9308655,18.9911351 Z" id="Oval-1"></path>
                        <path d="M38.6400426,14.9038012 C40.8416454,10.2030199 41.7133152,6.1804381 39.96932,4.43431044 C35.7751834,0.235045664 25.476269,6.19782612 15.8741914,15.7999036 C6.27211393,25.4019812 0.0940254498,35.4308007 4.12318124,39.4599546 C5.57694582,40.9137185 8.88262763,40.7551322 12.6891275,39.4811331 C7.97733205,41.5292142 4.06805656,41.7886022 2.05492271,39.7754683 C-2.02254516,35.6980004 3.22273293,23.8418407 13.7705792,13.2939944 C24.3184255,2.74614812 36.1745852,-2.49912996 40.2520531,1.57833791 C42.6377163,3.96400109 41.8319812,9.01249603 38.6400426,14.9038012 Z" id="Path-2"></path>
                    </g>
                </g>
            </g>
        </g>
    </g>
</svg>