<?xml version="1.0" encoding="UTF-8"?>
<svg width="43px" height="43px" viewBox="0 0 43 43" version="1.1" xmlns="http://www.w3.org/2000/svg" xmlns:xlink="http://www.w3.org/1999/xlink">
    <!-- Generator: sketchtool 50 (54983) - http://www.bohemiancoding.com/sketch -->
    <title>9FF237CB-1FCF-4022-B0B7-A848978FF23D</title>
    <desc>Created with sketchtool.</desc>
    <defs>
        <path d="M166.993329,126 C165.892444,126 165,126.893127 165,128.000157 L165,471.999843 C165,473.104499 165.893617,474 166.993329,474 L633.006671,474 C634.107556,474 635,473.106873 635,471.999843 L635,128.000157 C635,126.895501 634.106383,126 633.006671,126 L166.993329,126 Z" id="path-1"></path>
        <filter x="-3.2%" y="-4.3%" width="106.4%" height="108.6%" filterUnits="objectBoundingBox" id="filter-2">
            <feOffset dx="0" dy="0" in="SourceAlpha" result="shadowOffsetOuter1"></feOffset>
            <feGaussianBlur stdDeviation="5" in="shadowOffsetOuter1" result="shadowBlurOuter1"></feGaussianBlur>
            <feColorMatrix values="0 0 0 0 0.247058824   0 0 0 0 0.305882353   0 0 0 0 0.352941176  0 0 0 0.108667346 0" type="matrix" in="shadowBlurOuter1"></feColorMatrix>
        </filter>
        <path d="M18.0772059,41.3672294 C7.87751773,40.0420971 0,31.3258792 0,20.7708021 C0,16.6049445 1.22708719,12.7255274 3.3397226,9.47389794 L12.0827221,24.6172173 C13.5603539,27.950622 16.8996927,30.2760845 20.7824777,30.2760845 C22.3242094,30.2760845 23.7802595,29.9094441 25.0681007,29.2586444 L18.0772059,41.3672294 Z M19.6209809,41.5097127 L28.0642755,26.8854973 C29.4552007,25.2326713 30.2931031,23.099533 30.2931031,20.7708021 C30.2931031,17.3477205 28.4826415,14.3472574 25.7665238,12.6737098 L39.926615,12.6737098 C40.9815171,15.16194 41.5649554,17.8982747 41.5649554,20.7708021 C41.5649554,32.2421994 32.2603232,41.5416043 20.7824777,41.5416043 C20.392713,41.5416043 20.0054543,41.5308807 19.6209809,41.5097127 Z M4.23314712,8.20497465 C8.02923086,3.21879345 14.0297482,0 20.7824777,0 C28.8330624,0 35.8145025,4.57498058 39.2659935,11.2655198 L20.4302323,11.2655198 L20.4302323,11.2719184 C15.4612808,11.4527314 11.4649936,15.4433656 11.2786471,20.4081386 L4.23314712,8.20497465 Z M20.7824777,28.1637995 C16.6971428,28.1637995 13.3853246,24.8538418 13.3853246,20.7708021 C13.3853246,16.6877624 16.6971428,13.3778048 20.7824777,13.3778048 C24.8678125,13.3778048 28.1796308,16.6877624 28.1796308,20.7708021 C28.1796308,24.8538418 24.8678125,28.1637995 20.7824777,28.1637995 Z" id="path-3"></path>
        <path d="M18.0935073,41.2980057 C7.88534838,39.979161 0,31.2757197 0,20.7354476 C0,16.5738044 1.22926896,12.69851 3.345424,9.45103782 L12.1228849,24.6540461 C13.6185445,27.9396056 16.9370531,30.2245507 20.7906603,30.2245507 C22.3303089,30.2245507 23.7845408,29.8598101 25.0712277,29.2122395 L18.0935073,41.2980057 Z M19.6351374,41.4394102 L28.0406785,26.8805858 C29.452872,25.2249418 30.3050303,23.0794465 30.3050303,20.7354476 C30.3050303,17.3181925 28.4938559,14.3228365 25.7766688,12.6521375 L39.9423353,12.6521375 C40.9976526,15.1361324 41.5813207,17.8678095 41.5813207,20.7354476 C41.5813207,32.1873191 32.273025,41.4708952 20.7906603,41.4708952 C20.4029153,41.4708952 20.0176494,41.4603088 19.6351374,41.4394102 Z M4.23845803,8.18623351 C8.03623185,3.21125967 14.0374326,0 20.7906603,0 C28.8444148,0 35.8286037,4.56719338 39.2814537,11.2463444 L20.4382763,11.2463444 L20.4382763,11.2527322 C15.4628168,11.4334027 11.4621873,15.4243778 11.2825853,20.3870184 L4.23845892,8.18623355 Z M20.7906603,28.1158611 C16.703717,28.1158611 13.3905948,24.8115374 13.3905948,20.7354476 C13.3905948,16.6593577 16.703717,13.355034 20.7906603,13.355034 C24.8776037,13.355034 28.1907259,16.6593577 28.1907259,20.7354476 C28.1907259,24.8115374 24.8776037,28.1158611 20.7906603,28.1158611 Z" id="path-5"></path>
    </defs>
    <g id="Page-1" stroke="none" stroke-width="1" fill="none" fill-rule="evenodd">
        <g id="Browser-Not-Supported" transform="translate(-305.000000, -277.000000)">
            <g id="Lightbox-Background">
                <use fill="black" fill-opacity="1" filter="url(#filter-2)" xlink:href="#path-1"></use>
                <use fill="#FFFFFF" fill-rule="evenodd" xlink:href="#path-1"></use>
            </g>
            <g id="Browser-Icons---Grayscale" transform="translate(224.000000, 276.000000)">
                <g id="chrome" transform="translate(81.652365, 1.745045)">
                    <g id="img">
                        <mask id="mask-4" fill="white">
                            <use xlink:href="#path-3"></use>
                        </mask>
                        <use id="Oval-1" fill="#EAEAEA" xlink:href="#path-3"></use>
                        <polygon id="Path-14" fill="#EAEAEA" mask="url(#mask-4)" points="3.13099364 6.26397006 11.4527909 22.2993208 12.5446139 17.6278156 15.5985539 13.7456669 20.8815467 12.3477908 26.2498489 12.0411244 45.9625188 11.7695253 25.5102712 -2.52621581 11.4232077 0.0378176019"></polygon>
                        <polygon id="Path-15" fill="#EAEAEA" mask="url(#mask-4)" points="23.9024637 11.9819915 27.0926235 15.2556206 29.1448657 18.5292497 29.1448657 21.2796208 27.6106719 25.5090039 18.6297906 42.4196602 23.3892311 42.6809455 33.7233677 39.1962254 41.0090681 30.1750083 43.4493306 21.1090978 42.4022261 14.0035142 41.0895617 12.122948"></polygon>
                        <polygon id="Path-16" fill="#EAEAEA" mask="url(#mask-4)" points="3.23143862 8.26486499 6.8089308 14.2792389 12.0011103 22.174179 14.6174955 26.5335171 16.8864511 28.2380595 19.8144909 29.067984 23.7896351 28.9772217 26.0689104 28.0572226 17.9535069 42.881035 3.68963281 37.3445381 -2.24212443 24.4012919 -1.58785615 14.6766675"></polygon>
                    </g>
                </g>
            </g>
            <g id="Browser-Icons---Color" transform="translate(224.000000, 276.000000)">
                <g id="chrome" transform="translate(81.546315, 1.859521)">
                    <g id="img">
                        <mask id="mask-6" fill="white">
                            <use xlink:href="#path-5"></use>
                        </mask>
                        <use id="Oval-1" fill="#56AFEF" xlink:href="#path-5"></use>
                        <polygon id="Path-14" fill="#FA6758" mask="url(#mask-6)" points="3.1322264 6.25330798 11.4573001 22.2613646 12.5495531 17.5978108 15.6046955 13.72227 20.8897684 12.3267733 26.2601842 12.0206289 45.9806156 11.7494921 25.5203153 -2.52191586 11.4277054 0.0377532315"></polygon>
                        <polygon id="Path-15" fill="#F5D923" mask="url(#mask-6)" points="23.9118747 11.9615966 27.1032907 15.2296536 29.1563408 18.4977106 29.1563408 21.2434001 27.621543 25.4655843 18.6371256 42.3474565 23.3984401 42.6082971 33.7366455 39.1295084 41.0252146 30.1236466 43.4664378 21.0731674 42.4189211 13.9796784 41.1057398 12.1023132"></polygon>
                        <polygon id="Path-16" fill="#6CE84E" mask="url(#mask-6)" points="3.23271092 8.25079714 6.81161167 14.2549338 12.0058355 22.1364357 14.6232508 26.4883536 16.8930998 28.1899947 19.8222924 29.0185066 23.7990017 28.9278988 26.0791744 28.0094657 17.9605757 42.808046 3.69108552 37.2809729 -2.24300722 24.3597578 -1.58848133 14.6516859"></polygon>
                    </g>
                </g>
            </g>
        </g>
    </g>
</svg>