<?xml version="1.0" encoding="UTF-8"?>
<svg width="43px" height="43px" viewBox="0 0 43 43" version="1.1" xmlns="http://www.w3.org/2000/svg" xmlns:xlink="http://www.w3.org/1999/xlink">
    <!-- Generator: sketchtool 50 (54983) - http://www.bohemiancoding.com/sketch -->
    <title>C5AE05CB-300B-41F8-A369-797AD9760FE1</title>
    <desc>Created with sketchtool.</desc>
    <defs>
        <path d="M166.993329,126 C165.892444,126 165,126.893127 165,128.000157 L165,471.999843 C165,473.104499 165.893617,474 166.993329,474 L633.006671,474 C634.107556,474 635,473.106873 635,471.999843 L635,128.000157 C635,126.895501 634.106383,126 633.006671,126 L166.993329,126 Z" id="path-1"></path>
        <filter x="-3.2%" y="-4.3%" width="106.4%" height="108.6%" filterUnits="objectBoundingBox" id="filter-2">
            <feOffset dx="0" dy="0" in="SourceAlpha" result="shadowOffsetOuter1"></feOffset>
            <feGaussianBlur stdDeviation="5" in="shadowOffsetOuter1" result="shadowBlurOuter1"></feGaussianBlur>
            <feColorMatrix values="0 0 0 0 0.247058824   0 0 0 0 0.305882353   0 0 0 0 0.352941176  0 0 0 0.108667346 0" type="matrix" in="shadowBlurOuter1"></feColorMatrix>
        </filter>
    </defs>
    <g id="Page-1" stroke="none" stroke-width="1" fill="none" fill-rule="evenodd">
        <g id="Browser-Not-Supported" transform="translate(-383.000000, -277.000000)">
            <g id="Lightbox-Background">
                <use fill="black" fill-opacity="1" filter="url(#filter-2)" xlink:href="#path-1"></use>
                <use fill="#FFFFFF" fill-rule="evenodd" xlink:href="#path-1"></use>
            </g>
            <g id="Browser-Icons---Grayscale" transform="translate(224.000000, 276.000000)" fill="#EAEAEA">
                <g id="firefox" transform="translate(159.146349, 1.745045)">
                    <g id="img">
                        <path d="M21.0848682,41.5416043 C9.44001706,41.5416043 0,32.2421994 0,20.7708021 C0,9.29940487 9.44001706,0 21.0848682,0 C32.7297194,0 42.1697365,9.29940487 42.1697365,20.7708021 C42.1697365,32.2421994 32.7297194,41.5416043 21.0848682,41.5416043 Z M21.6816315,37.8244778 C32.5758578,37.8244778 38.5956381,31.4644775 38.5956381,20.7708021 C38.5956381,14.2068504 36.1859111,9.03366717 31.354315,5.53202756 C31.0176039,5.28800032 31.7255845,4.42723376 31.3543148,4.20606168 C28.3737832,2.43050505 24.8758794,1.40818998 21.1347231,1.40818998 C13.0992161,1.40818998 6.18591399,6.12447041 3.11102239,12.890828 C2.01709618,15.2980336 2.73265365,17.9647088 2.73265365,20.7708021 C2.73265365,31.4644775 10.7874053,37.8244778 21.6816315,37.8244778 Z" id="Oval-1"></path>
                        <path d="M3.82206882,4.36690163 L6.65723137,8.3972266 L11.5198688,8.83212902 L16.2342468,6.16976985 L14.7499315,9.26703144 C14.7499315,9.26703144 15.4719657,10.3132038 15.4719657,11.2988681 C15.4719657,11.2988681 20.1666085,11.2988681 20.1666085,11.2988681 C20.1666085,11.2988681 21.1096118,11.9070438 20.2971083,12.8500773 C19.4846048,13.7931108 16.1461854,16.3475179 16.1461854,16.3475179 L16.1234821,19.055602 L13.0444309,19.1209233 C13.0444309,19.1209233 12.9512097,22.8016074 15.4241512,23.4806052 C17.8970926,24.1596031 21.1474507,22.5000979 21.1474507,22.5000979 C21.1474507,22.5000979 23.6307118,22.1229533 24.5739314,23.2217265 C25.517151,24.3204998 25.4115462,24.6670465 24.2065505,25.0620686 C23.0015548,25.4570906 20.2850687,27.7423051 18.2042754,27.7423051 C16.1234821,27.7423051 15.4695578,27.6542933 15.4695578,27.6542933 C15.4695578,27.6542933 16.3174922,28.9394041 18.0456962,29.4874156 C19.7739001,30.035427 27.7764749,31.994035 31.7660667,24.9994976 C32.5796022,23.2217265 32.5568988,19.8528658 32.5568988,19.8528658 L34.2623994,20.9891128 C34.2623994,20.9891128 35.3765819,16.6449018 34.2623994,13.9718849 C34.2623994,13.9718849 35.6132467,13.7907042 35.6132467,13.7907042 C35.6132467,13.7907042 33.2558858,8.81562679 27.8273854,7.49269832 C27.8273854,7.49269832 30.9693867,6.6682746 30.9693867,6.6682746 C30.9693867,6.6682746 28.8490346,4.68697606 25.4552329,4.05335933 L31.422421,4.20669251 L37.6761526,10.0020681 L40.3376004,18.4144217 L39.4421953,26.9127245 L35.3215435,33.7137045 L30.0210073,38.0933266 L23.2815624,39.9690796 L12.6402431,38.5309794 L3.0030295,29.8569967 L1.08115942,16.7349764 L2.6081294,11.0678369 L3.82206882,4.36690163 Z" id="Path-17"></path>
                    </g>
                </g>
            </g>
            <g id="Browser-Icons---Color" transform="translate(224.000000, 276.000000)" fill="#F5A623">
                <g id="firefox" transform="translate(159.070811, 1.859521)">
                    <g id="img">
                        <path d="M21.0931699,41.4708952 C9.44373386,41.4708952 0,32.1873191 0,20.7354476 C0,9.2835761 9.44373386,0 21.0931699,0 C32.742606,0 42.1863399,9.2835761 42.1863399,20.7354476 C42.1863399,32.1873191 32.742606,41.4708952 21.0931699,41.4708952 Z M21.6901682,37.7600957 C32.5886838,37.7600957 38.6108343,31.410921 38.6108343,20.7354476 C38.6108343,14.1826686 36.2001585,9.01829072 31.3666601,5.52261134 C31.0298164,5.27899947 31.7380757,4.41969805 31.3666599,4.19890243 C28.3849548,2.42636802 24.8856737,1.40579306 21.1430444,1.40579306 C13.1043736,1.40579306 6.18834956,6.11404578 3.11224729,12.8688862 C2.01789036,15.2719944 2.73372957,17.9341306 2.73372957,20.7354476 C2.73372957,31.410921 10.7916526,37.7600957 21.6901682,37.7600957 Z" id="Oval-1"></path>
                        <path d="M3.82357367,4.3594686 L6.65985251,8.38293345 L11.5244045,8.81709561 L16.2406386,6.15926811 L14.755739,9.25125777 C14.755739,9.25125777 15.4780575,10.2956494 15.4780575,11.2796359 C15.4780575,11.2796359 20.1745487,11.2796359 20.1745487,11.2796359 C20.1745487,11.2796359 21.1179233,11.8867765 20.3050999,12.8282048 C19.4922764,13.7696332 16.1525426,16.3196923 16.1525426,16.3196923 L16.1298304,19.0231669 L13.0495668,19.0883771 C13.0495668,19.0883771 12.956309,22.7627961 15.4302241,23.4406382 C17.9041392,24.1184803 21.155777,22.4617999 21.155777,22.4617999 C21.155777,22.4617999 23.6400159,22.0852972 24.5836069,23.1822002 C25.5271978,24.2791032 25.4215514,24.6250601 24.2160813,25.0194097 C23.0106112,25.4137594 20.2930555,27.6950842 18.2114429,27.6950842 C16.1298304,27.6950842 15.4756486,27.6072221 15.4756486,27.6072221 C15.4756486,27.6072221 16.3239169,28.8901456 18.0528013,29.4372242 C19.7816856,29.9843029 27.7874113,31.9395771 31.7785739,24.9569453 C32.5924297,23.1822002 32.5697174,19.8190737 32.5697174,19.8190737 L34.2758895,20.9533867 C34.2758895,20.9533867 35.3905106,16.61657 34.2758895,13.948103 C34.2758895,13.948103 35.6272687,13.7672307 35.6272687,13.7672307 C35.6272687,13.7672307 33.2689796,8.80062147 27.8383418,7.47994479 C27.8383418,7.47994479 30.9815802,6.65692434 30.9815802,6.65692434 C30.9815802,6.65692434 28.8603933,4.67899823 25.4652553,4.04645999 L31.4347929,4.19953219 L37.6909867,9.98504331 L40.3534824,18.383078 L39.4577249,26.8669156 L35.3354506,33.6563194 L30.0328274,38.0284869 L23.290729,39.9010471 L12.6452199,38.4653947 L3.00421188,29.8061763 L1.0815851,16.7064914 L2.60915629,11.048998 L3.82357367,4.3594686 Z" id="Path-17"></path>
                    </g>
                </g>
            </g>
        </g>
    </g>
</svg>