<?xml version="1.0" encoding="UTF-8"?>
<svg width="43px" height="43px" viewBox="0 0 43 43" version="1.1" xmlns="http://www.w3.org/2000/svg" xmlns:xlink="http://www.w3.org/1999/xlink">
    <!-- Generator: sketchtool 50 (54983) - http://www.bohemiancoding.com/sketch -->
    <title>ACAC2840-5C04-4EE8-9051-6EE1B62D81CE</title>
    <desc>Created with sketchtool.</desc>
    <defs>
        <path d="M166.993329,126 C165.892444,126 165,126.893127 165,128.000157 L165,471.999843 C165,473.104499 165.893617,474 166.993329,474 L633.006671,474 C634.107556,474 635,473.106873 635,471.999843 L635,128.000157 C635,126.895501 634.106383,126 633.006671,126 L166.993329,126 Z" id="path-1"></path>
        <filter x="-3.2%" y="-4.3%" width="106.4%" height="108.6%" filterUnits="objectBoundingBox" id="filter-2">
            <feOffset dx="0" dy="0" in="SourceAlpha" result="shadowOffsetOuter1"></feOffset>
            <feGaussianBlur stdDeviation="5" in="shadowOffsetOuter1" result="shadowBlurOuter1"></feGaussianBlur>
            <feColorMatrix values="0 0 0 0 0.247058824   0 0 0 0 0.305882353   0 0 0 0 0.352941176  0 0 0 0.108667346 0" type="matrix" in="shadowBlurOuter1"></feColorMatrix>
        </filter>
    </defs>
    <g id="Page-1" stroke="none" stroke-width="1" fill="none" fill-rule="evenodd">
        <g id="Browser-Not-Supported" transform="translate(-459.000000, -277.000000)">
            <g id="Lightbox-Background">
                <use fill="black" fill-opacity="1" filter="url(#filter-2)" xlink:href="#path-1"></use>
                <use fill="#FFFFFF" fill-rule="evenodd" xlink:href="#path-1"></use>
            </g>
            <g id="Browser-Icons---Grayscale" transform="translate(224.000000, 276.000000)">
                <g id="safari" transform="translate(235.231352, 1.745045)">
                    <g id="img">
                        <ellipse id="Oval-1" fill="#EFEFEF" cx="21.0848682" cy="20.7708021" rx="21.0848682" ry="20.7708021"></ellipse>
                        <path d="M13.5229414,17.1721567 L14.9755494,19.3036792 C14.8571805,19.7731263 14.7943061,20.2646258 14.7943061,20.7708021 C14.7943061,24.07612 17.4753019,26.7556095 20.7824777,26.7556095 C24.0896535,26.7556095 26.7706492,24.07612 26.7706492,20.7708021 C26.7706492,17.4654843 24.0896535,14.7859947 20.7824777,14.7859947 C20.2889011,14.7859947 19.8092719,14.8456772 19.3504208,14.9582152 L17.2291339,13.4920322 C17.9068355,13.1609442 18.6376131,12.9216125 19.405268,12.7902267 L20.7824777,5.6327599 L22.1596873,12.7902267 C25.5301509,13.3670889 28.1897174,16.0248605 28.7673525,19.3932774 L35.9264566,20.7708021 L28.7673525,22.1483268 C28.1897174,25.5167438 25.5301509,28.1745154 22.1596873,28.7513776 L20.7824777,35.9088444 L19.405268,28.7513776 C16.0348045,28.1745154 13.375238,25.5167438 12.7976029,22.1483268 L5.63849873,20.7708021 L12.7976029,19.3932774 C12.9321705,18.608561 13.1797281,17.8624126 13.5229414,17.1721567 Z" id="Oval-2" fill="#FFFFFF"></path>
                        <polygon id="Triangle-5" fill="#FFFFFF" transform="translate(14.088095, 14.064022) rotate(-45.000000) translate(-14.088095, -14.064022) " points="14.0880954 4.55874001 17.2583039 23.5693047 10.917887 23.5693047"></polygon>
                        <polygon id="Triangle-6" fill="#FFFFFF" transform="translate(27.473420, 27.441827) scale(-1, -1) rotate(-45.000000) translate(-27.473420, -27.441827) " points="27.47342 17.9365448 30.6436285 36.9471094 24.3032116 36.9471094"></polygon>
                        <ellipse id="Oval-4" fill="#FFFFFF" cx="20.7824777" cy="20.7708021" rx="3.17020846" ry="3.16842744"></ellipse>
                    </g>
                </g>
            </g>
            <g id="Browser-Icons---Color" transform="translate(224.000000, 276.000000)">
                <g id="safari" transform="translate(235.185771, 1.859521)">
                    <g id="img">
                        <ellipse id="Oval-1" fill="#56AFEF" cx="21.0931699" cy="20.7354476" rx="21.0931699" ry="20.7354476"></ellipse>
                        <path d="M13.5282658,17.1429275 L14.9814457,19.2708219 C14.8630302,19.7394699 14.8001311,20.2301328 14.8001311,20.7354476 C14.8001311,24.0351394 17.4821824,26.7100681 20.7906603,26.7100681 C24.0991383,26.7100681 26.7811896,24.0351394 26.7811896,20.7354476 C26.7811896,17.4357558 24.0991383,14.7608271 20.7906603,14.7608271 C20.2968894,14.7608271 19.8170714,14.820408 19.3580396,14.9327544 L17.2359175,13.4690671 C17.913886,13.1385426 18.6449513,12.8996183 19.4129085,12.7684561 L20.7906603,5.62317222 L22.1684122,12.7684561 C25.5388438,13.3441043 28.1986716,15.9954457 28.7779793,19.356202 L35.93101,20.7354476 L28.7779793,22.1146932 C28.1986716,25.4754495 25.5388438,28.1267909 22.1684122,28.702439 L20.7906603,35.8477229 L19.4129085,28.702439 C16.0424768,28.1267909 13.382649,25.4754495 12.8033414,22.1146932 L5.6503107,20.7354476 L12.8033414,19.356202 C12.9381195,18.5743096 13.1855114,17.8308163 13.5282658,17.1429275 Z" id="Oval-2" fill="#FFFFFF"></path>
                        <polygon id="Triangle-5" fill="#F54747" transform="translate(14.093642, 14.040084) rotate(-45.000000) translate(-14.093642, -14.040084) " points="14.0936423 4.55098045 17.265099 23.5291867 10.9221857 23.5291867"></polygon>
                        <polygon id="Triangle-6" fill="#F8D8D8" transform="translate(27.484237, 27.395118) scale(-1, -1) rotate(-45.000000) translate(-27.484237, -27.395118) " points="27.4842371 17.9060145 30.6556938 36.8842207 24.3127804 36.8842207"></polygon>
                        <ellipse id="Oval-4" fill="#FFFFFF" cx="20.7906603" cy="20.7354476" rx="3.17145666" ry="3.16303438"></ellipse>
                    </g>
                </g>
            </g>
        </g>
    </g>
</svg>